# xmcd CD database file
#
# Track frame offsets:
#	183
#	7308
#	15558
#	20508
#	30558
#	34983
#	43758
#	52533
#	59508
#	65358
#	70833
#	75483
#	79908
#	85833
#	92733
#	100158
#	108033
#	115008
#	122508
#	129333
#	135033
#	144858
#	153333
#	161733
#	168858
#	175158
#	180108
#	187308
#	194208
#	203058
#	207558
#	218058
#	223983
#	232008
#	236358
#	241908
#	247533
#	253833
#	258783
#	263958
#	272958
#	277758
#	282783
#	287883
#	292308
#	296658
#	298983
#	301533
#	303783
#	308808
#	315708
#	319683
#	322983
#
# Disc length: 4372 seconds
#
# Revision: 0
# Processed by: cddbd v1.5.1PL0 Copyright (c) Steve Scherf et al.
# Submitted via: CDex 1.51
#
DISCID=f5111235
DTITLE=Sonoton Authentic Series - SAS 033 - Authentic ritish Isles
DYEAR=1989
DGENRE=Contentum
TTITLE0=England - Newcastle
TTITLE1=England - The trees they do grow high
TTITLE2=England - The Queen's jig
TTITLE3=England - Coniston waters
TTITLE4=England - At the village fair
TTITLE5=England - The lingering rose
TTITLE6=England - May Queen
TTITLE7=England - Follow me here and there
TTITLE8=England - Down by the crystal riverside
TTITLE9=England - Four pastoral harp pieces 1
TTITLE10=England - Four pastoral harp pieces 2
TTITLE11=England - Four pastoral harp pieces 3
TTITLE12=England - Four pastoral harp pieces 4
TTITLE13=Scotland - Bonnie Highland hearts
TTITLE14=Scotland - Longing for home
TTITLE15=Scotland - Castle reel
TTITLE16=Scotland - Fond memories of portree
TTITLE17=Scotland - Meeting of the clans
TTITLE18=Scotland - Stirring drums of the highlands
TTITLE19=Scotland - My proud Laddie
TTITLE20=Scotland - Alone in the glen
TTITLE21=Scotland - March for Jeanie
TTITLE22=Scotland - Echoes of the north
TTITLE23=Scotland - Heather on the moors
TTITLE24=Ireland and Wales - My very own lad
TTITLE25=Ireland and Wales - Toast to the o'relly's
TTITLE26=Ireland and Wales - Paddy's jig
TTITLE27=Ireland and Wales - The last shamrock
TTITLE28=Ireland and Wales - It was on a fine summer's morning
TTITLE29=Ireland and Wales - Dreams of home
TTITLE30=Ireland and Wales - Lough sheeling
TTITLE31=Ireland and Wales - Bells of Aberdovey
TTITLE32=Ireland and Wales - David of the white rock 1
TTITLE33=Ireland and Wales - David of the white rock 2
TTITLE34=Ireland and Wales - Let's climb the hillside
TTITLE35=Ireland and Wales - My collie and med
TTITLE36=Various places - Those long summer days
TTITLE37=Various places - The Golden Walley 1
TTITLE38=Various places - The Golden Walley 2
TTITLE39=Various places - Cries of the sea
TTITLE40=Various places - The lonely seaman
TTITLE41=Various places - Simple folk
TTITLE42=Various places - Echoes og time 1
TTITLE43=Various places - Echoes og time 2
TTITLE44=Various places - Last of the harvest percussive effects 1
TTITLE45=Various places - Last of the harvest percussive effects 2
TTITLE46=Various places - Last of the harvest percussive effects 3
TTITLE47=Various places - Last of the harvest percussive effects 4
TTITLE48=Various places - Last of the harvest percussive effects 5
TTITLE49=Various places - Sweet maiden so fair three wessex style folk songs 1
TTITLE50=Various places - Sweet maiden so fair three wessex style folk songs 2
TTITLE51=Various places - Sweet maiden so fair three wessex style folk songs 3
TTITLE52=Various places - Sweet maiden so fair three wessex style folk songs 4
EXTD=YEAR: 1989
EXTT0=
EXTT1=
EXTT2=
EXTT3=
EXTT4=
EXTT5=
EXTT6=
EXTT7=
EXTT8=
EXTT9=
EXTT10=
EXTT11=
EXTT12=
EXTT13=
EXTT14=
EXTT15=
EXTT16=
EXTT17=
EXTT18=
EXTT19=
EXTT20=
EXTT21=
EXTT22=
EXTT23=
EXTT24=
EXTT25=
EXTT26=
EXTT27=
EXTT28=
EXTT29=
EXTT30=
EXTT31=
EXTT32=
EXTT33=
EXTT34=
EXTT35=
EXTT36=
EXTT37=
EXTT38=
EXTT39=
EXTT40=
EXTT41=
EXTT42=
EXTT43=
EXTT44=
EXTT45=
EXTT46=
EXTT47=
EXTT48=
EXTT49=
EXTT50=
EXTT51=
EXTT52=
PLAYORDER=
